<mxfile host="app.diagrams.net" agent="Mozilla/5.0 (Windows NT 10.0; Win64; x64) AppleWebKit/537.36 (KHTML, like Gecko) Chrome/132.0.0.0 Safari/537.36 Edg/132.0.0.0" version="26.0.10">
  <diagram name="Page-1" id="3lnaKKQOZtjAez9t07IL">
    <mxGraphModel dx="2348" dy="1005" grid="1" gridSize="10" guides="1" tooltips="1" connect="1" arrows="1" fold="1" page="1" pageScale="1" pageWidth="850" pageHeight="1100" math="0" shadow="0">
      <root>
        <mxCell id="0" />
        <mxCell id="1" parent="0" />
        <mxCell id="MjkCWfM-LNGeo4nKaT_e-15" style="edgeStyle=orthogonalEdgeStyle;rounded=0;orthogonalLoop=1;jettySize=auto;html=1;entryX=0.5;entryY=0;entryDx=0;entryDy=0;" edge="1" parent="1" source="MjkCWfM-LNGeo4nKaT_e-9" target="MjkCWfM-LNGeo4nKaT_e-11">
          <mxGeometry relative="1" as="geometry" />
        </mxCell>
        <mxCell id="MjkCWfM-LNGeo4nKaT_e-16" value="" style="edgeStyle=orthogonalEdgeStyle;rounded=0;orthogonalLoop=1;jettySize=auto;html=1;" edge="1" parent="1" source="MjkCWfM-LNGeo4nKaT_e-9" target="MjkCWfM-LNGeo4nKaT_e-10">
          <mxGeometry relative="1" as="geometry" />
        </mxCell>
        <mxCell id="MjkCWfM-LNGeo4nKaT_e-17" style="edgeStyle=orthogonalEdgeStyle;rounded=0;orthogonalLoop=1;jettySize=auto;html=1;entryX=0.5;entryY=0;entryDx=0;entryDy=0;" edge="1" parent="1" source="MjkCWfM-LNGeo4nKaT_e-9" target="MjkCWfM-LNGeo4nKaT_e-14">
          <mxGeometry relative="1" as="geometry" />
        </mxCell>
        <mxCell id="MjkCWfM-LNGeo4nKaT_e-9" value="USER" style="rounded=0;whiteSpace=wrap;html=1;" vertex="1" parent="1">
          <mxGeometry x="160" y="200" width="120" height="80" as="geometry" />
        </mxCell>
        <mxCell id="MjkCWfM-LNGeo4nKaT_e-10" value="" style="ellipse;whiteSpace=wrap;html=1;" vertex="1" parent="1">
          <mxGeometry x="160" y="320" width="120" height="40" as="geometry" />
        </mxCell>
        <mxCell id="MjkCWfM-LNGeo4nKaT_e-11" value="" style="ellipse;whiteSpace=wrap;html=1;" vertex="1" parent="1">
          <mxGeometry y="320" width="120" height="40" as="geometry" />
        </mxCell>
        <mxCell id="MjkCWfM-LNGeo4nKaT_e-14" value="" style="rhombus;whiteSpace=wrap;html=1;" vertex="1" parent="1">
          <mxGeometry x="320" y="320" width="120" height="40" as="geometry" />
        </mxCell>
        <mxCell id="MjkCWfM-LNGeo4nKaT_e-18" value="USER" style="rounded=0;whiteSpace=wrap;html=1;" vertex="1" parent="1">
          <mxGeometry x="320" y="400" width="120" height="80" as="geometry" />
        </mxCell>
        <mxCell id="MjkCWfM-LNGeo4nKaT_e-19" value="" style="ellipse;whiteSpace=wrap;html=1;" vertex="1" parent="1">
          <mxGeometry x="240" y="520" width="120" height="40" as="geometry" />
        </mxCell>
        <mxCell id="MjkCWfM-LNGeo4nKaT_e-20" value="" style="ellipse;whiteSpace=wrap;html=1;" vertex="1" parent="1">
          <mxGeometry x="400" y="520" width="120" height="40" as="geometry" />
        </mxCell>
        <mxCell id="MjkCWfM-LNGeo4nKaT_e-21" value="" style="ellipse;whiteSpace=wrap;html=1;" vertex="1" parent="1">
          <mxGeometry x="80" y="520" width="120" height="40" as="geometry" />
        </mxCell>
        <mxCell id="MjkCWfM-LNGeo4nKaT_e-22" value="" style="ellipse;whiteSpace=wrap;html=1;" vertex="1" parent="1">
          <mxGeometry x="-80" y="520" width="120" height="40" as="geometry" />
        </mxCell>
        <mxCell id="MjkCWfM-LNGeo4nKaT_e-23" value="" style="ellipse;whiteSpace=wrap;html=1;" vertex="1" parent="1">
          <mxGeometry x="-240" y="520" width="120" height="40" as="geometry" />
        </mxCell>
        <mxCell id="MjkCWfM-LNGeo4nKaT_e-24" style="edgeStyle=orthogonalEdgeStyle;rounded=0;orthogonalLoop=1;jettySize=auto;html=1;exitX=0.5;exitY=1;exitDx=0;exitDy=0;" edge="1" parent="1" source="MjkCWfM-LNGeo4nKaT_e-21" target="MjkCWfM-LNGeo4nKaT_e-21">
          <mxGeometry relative="1" as="geometry" />
        </mxCell>
        <mxCell id="MjkCWfM-LNGeo4nKaT_e-25" value="" style="rhombus;whiteSpace=wrap;html=1;" vertex="1" parent="1">
          <mxGeometry x="560" y="520" width="120" height="40" as="geometry" />
        </mxCell>
      </root>
    </mxGraphModel>
  </diagram>
</mxfile>
